<svg width="24" height="24" viewBox="0 0 24 24" fill="none" xmlns="http://www.w3.org/2000/svg">
<path d="M16.7275 22L16.7277 23H16.7275V22ZM18.7275 20L19.7275 20L19.7275 20L18.7275 20ZM18.7275 4H19.7275H18.7275ZM16.7275 2L16.7275 1L16.7277 1L16.7275 2ZM8 2L8 1H8V2ZM6 4L5 4L5 4L6 4ZM6 20H5H6ZM8 22L8 23L8 23L8 22ZM12.3633 19.2725L12.3633 20.2725L12.3628 20.2725L12.3633 19.2725ZM11.6816 18.5908L10.6816 18.5908L10.6816 18.5907L11.6816 18.5908ZM12.3633 17.9092L12.3628 16.9092H12.3633V17.9092ZM13.0459 18.5908L14.0459 18.5907V18.5908H13.0459ZM16.7275 22L16.7274 21C17.2798 20.9999 17.7275 20.5521 17.7275 20L18.7275 20L19.7275 20C19.7275 21.6569 18.3842 22.9998 16.7277 23L16.7275 22ZM18.7275 20H17.7275V4H18.7275H19.7275V20H18.7275ZM18.7275 4L17.7275 4C17.7275 3.44793 17.2798 3.00007 16.7274 3L16.7275 2L16.7277 1C18.3842 1.00022 19.7275 2.3431 19.7275 4L18.7275 4ZM16.7275 2V3H8V2V1H16.7275V2ZM8 2L8 3C7.44772 3 7 3.44772 7 4L6 4L5 4C5 2.34315 6.34315 1 8 1L8 2ZM6 4H7V20H6H5V4H6ZM6 20L7 20C7 20.5523 7.44772 21 8 21L8 22L8 23C6.34315 23 5 21.6569 5 20L6 20ZM8 22V21H16.7275V22V23H8V22ZM12.3633 19.2725L12.3628 20.2725C11.435 20.272 10.6816 19.5201 10.6816 18.5908H11.6816H12.6816C12.6816 18.4145 12.5388 18.2726 12.3638 18.2725L12.3633 19.2725ZM11.6816 18.5908L10.6816 18.5907C10.6818 17.6617 11.4349 16.9097 12.3628 16.9092L12.3633 17.9092L12.3638 18.9092C12.5389 18.9091 12.6816 18.7671 12.6816 18.5909L11.6816 18.5908ZM12.3633 17.9092V16.9092C13.2904 16.9092 14.0458 17.6603 14.0459 18.5907L13.0459 18.5908L12.0459 18.5909C12.0459 18.7684 12.1893 18.9092 12.3633 18.9092V17.9092ZM13.0459 18.5908H14.0459C14.0459 19.5215 13.2903 20.2725 12.3633 20.2725V19.2725V18.2725C12.1894 18.2725 12.0459 18.4132 12.0459 18.5908H13.0459Z" fill="#1C1C1C"/>
</svg>
