<svg width="24" height="24" viewBox="0 0 24 24" fill="none" xmlns="http://www.w3.org/2000/svg">
<path d="M10.0221 13.4861L9.37976 13.4262C7.87384 13.2858 7.12088 13.2156 6.87774 12.6985C6.6346 12.1813 7.06091 11.5567 7.91351 10.3074L12.1406 4.11385C12.7219 3.26214 13.0126 2.83629 13.2651 2.92333C13.5177 3.01037 13.4842 3.52486 13.4173 4.55386L13.1678 8.39278C13.1082 9.30974 13.0784 9.76822 13.342 10.0771C13.6055 10.3859 14.063 10.4286 14.9779 10.5139L15.6202 10.5738C17.1262 10.7142 17.8791 10.7844 18.1223 11.3015C18.3654 11.8187 17.9391 12.4433 17.0865 13.6926L12.8594 19.8862C12.2781 20.7379 11.9874 21.1637 11.7349 21.0767C11.4823 20.9896 11.5158 20.4751 11.5827 19.4461L11.8322 15.6072C11.8918 14.6903 11.9216 14.2318 11.658 13.9229C11.3945 13.6141 10.937 13.5714 10.0221 13.4861Z" stroke="white" stroke-width="2"/>
</svg>
