<svg width="24" height="24" viewBox="0 0 24 24" fill="none" xmlns="http://www.w3.org/2000/svg">
<path d="M11.8037 2L11.8037 1L11.8037 1L11.8037 2ZM20.6074 10.8037L21.6074 10.8037L21.6074 10.8037L20.6074 10.8037ZM12.2041 21.9277L12.6582 22.8187L12.6582 22.8187L12.2041 21.9277ZM11.4033 21.9277L10.9492 22.8187L10.9492 22.8187L11.4033 21.9277ZM3 10.8037L2 10.8037V10.8037H3ZM11.8037 7.03125L11.8037 6.03125L11.8037 6.03125L11.8037 7.03125ZM8.03125 10.8037L7.03125 10.8037V10.8037H8.03125ZM11.8037 14.5771L11.8037 15.5771H11.8037V14.5771ZM15.5771 10.8037L16.5771 10.8037L16.5771 10.8037L15.5771 10.8037ZM11.8037 2V3C16.1136 3 19.6073 6.49381 19.6074 10.8037L20.6074 10.8037L21.6074 10.8037C21.6073 5.38927 17.2182 1 11.8037 1V2ZM20.6074 10.8037H19.6074C19.6074 13.6483 18.1313 15.9696 16.3474 17.7367C14.5655 19.5018 12.5664 20.6207 11.75 21.0368L12.2041 21.9277L12.6582 22.8187C13.5629 22.3576 15.7655 21.1282 17.7549 19.1576C19.7424 17.1888 21.6074 14.3867 21.6074 10.8037H20.6074ZM12.2041 21.9277L11.75 21.0368C11.763 21.0302 11.7817 21.0247 11.8037 21.0247C11.8257 21.0247 11.8444 21.0302 11.8574 21.0368L11.4033 21.9277L10.9492 22.8187C11.4883 23.0934 12.1191 23.0934 12.6582 22.8187L12.2041 21.9277ZM11.4033 21.9277L11.8574 21.0368C11.0408 20.6206 9.04176 19.5016 7.25984 17.7365C5.476 15.9694 4 13.6481 4 10.8037H3H2C2 14.3865 3.86488 17.1886 5.85232 19.1573C7.84167 21.128 10.0443 22.3575 10.9492 22.8187L11.4033 21.9277ZM3 10.8037L4 10.8037C4.00008 6.49389 7.49389 3.00008 11.8037 3L11.8037 2L11.8037 1C6.38931 1.0001 2.0001 5.38931 2 10.8037L3 10.8037ZM11.8037 7.03125L11.8037 6.03125C9.16773 6.03137 7.03137 8.16773 7.03125 10.8037L8.03125 10.8037L9.03125 10.8038C9.03132 9.27232 10.2723 8.03132 11.8038 8.03125L11.8037 7.03125ZM8.03125 10.8037H7.03125C7.03125 13.4395 9.16738 15.577 11.8037 15.5771L11.8037 14.5771L11.8038 13.5771C10.2726 13.5771 9.03125 12.3355 9.03125 10.8037H8.03125ZM11.8037 14.5771V15.5771C14.4398 15.5771 16.5771 13.4398 16.5771 10.8037H15.5771H14.5771C14.5771 12.3352 13.3352 13.5771 11.8037 13.5771V14.5771ZM15.5771 10.8037L16.5771 10.8037C16.577 8.16738 14.4395 6.03125 11.8037 6.03125V7.03125V8.03125C13.3355 8.03125 14.5771 9.27256 14.5771 10.8038L15.5771 10.8037Z" fill="#59FFA0"/>
</svg>
