<svg width="24" height="24" viewBox="0 0 24 24" fill="none" xmlns="http://www.w3.org/2000/svg">
<path d="M15.96 15.8064C15.2014 16.6014 14.2215 17.1504 13.1474 17.3823C12.0732 17.6142 10.9542 17.5184 9.93507 17.1072C8.91599 16.696 8.04379 15.9884 7.43136 15.076C6.81893 14.1635 6.49448 13.0883 6.50001 11.9894C6.50001 10.968 6.78444 9.96671 7.32143 9.09785C7.85842 8.22898 8.62675 7.52681 9.54033 7.07002C10.4539 6.61323 11.4766 6.41987 12.4939 6.51159C13.5112 6.60332 14.4829 6.97652 15.3 7.58937C15.3 7.58937 15.3 6.46715 16.4 6.48937C17.5 6.51159 17.5 7.58937 17.5 7.58937V13.6394C17.5 14.077 17.6738 14.4967 17.9833 14.8061C18.2927 15.1155 18.7124 15.2894 19.15 15.2894C19.5876 15.2894 20.0073 15.1155 20.3167 14.8061C20.6262 14.4967 20.8 14.077 20.8 13.6394V11.9894C20.7986 10.0749 20.173 8.21312 19.0179 6.68636C17.8629 5.1596 16.2414 4.05115 14.3995 3.52913C12.5576 3.00711 10.5957 3.09999 8.81135 3.79369C7.027 4.48739 5.51753 5.74406 4.51189 7.37311C3.50624 9.00217 3.05927 10.9147 3.23877 12.8208C3.41828 14.7268 4.21445 16.5223 5.50655 17.9349C6.79865 19.3476 8.61751 20.6516 10.5 21C12 21.2776 13.2862 21.2619 14.9983 20.4052C14.9983 20.4052 16.1072 20.0417 16.433 20.8499C16.7588 21.658 16 22 16 22C13.8604 23.0722 12 23.1857 10.004 22.8174C7.6505 22.3831 5.50285 21.1932 3.88677 19.428C2.27069 17.6628 1.27437 15.4188 1.04893 13.0362C0.823482 10.6536 1.38121 8.26254 2.63752 6.22559C3.89383 4.18864 5.78018 2.61698 8.01044 1.74899C10.2407 0.880994 12.6932 0.764034 14.9959 1.41585C17.2987 2.06766 19.326 3.45268 20.7705 5.36083C22.2149 7.26898 22.9977 9.59615 23 11.9894H22.802H22.989V13.6394C22.9915 14.4646 22.7287 15.2688 22.2394 15.9333C21.7502 16.5979 21.0604 17.0877 20.2717 17.3305C19.4829 17.5732 18.6371 17.5562 17.8588 17.2818C17.0805 17.0073 16.411 16.4901 15.949 15.8064H15.96ZM12 15.2894C12.8752 15.2894 13.7146 14.9417 14.3335 14.3228C14.9523 13.7039 15.3 12.8646 15.3 11.9894C15.3 11.1142 14.9523 10.2748 14.3335 9.65592C13.7146 9.03705 12.8752 8.68937 12 8.68937C11.1248 8.68937 10.2854 9.03705 9.66655 9.65592C9.04768 10.2748 8.70001 11.1142 8.70001 11.9894C8.70001 12.8646 9.04768 13.7039 9.66655 14.3228C10.2854 14.9417 11.1248 15.2894 12 15.2894Z" fill="#59FFA0"/>
</svg>
