<svg width="24" height="24" viewBox="0 0 24 24" fill="none" xmlns="http://www.w3.org/2000/svg">
<path d="M4.67962 2.98705L4.95956 2.70711C5.35008 2.31658 5.98325 2.31658 6.37377 2.70711L9.62623 5.95956C10.0168 6.35008 10.0168 6.98325 9.62623 7.37377L8.31704 8.68296C8.1277 8.87229 8.08077 9.16154 8.20051 9.40102C9.58495 12.1699 11.8301 14.4151 14.599 15.7995C14.8385 15.9192 15.1277 15.8723 15.317 15.683L16.6262 14.3738C17.0168 13.9832 17.6499 13.9832 18.0404 14.3738L21.2929 17.6262C21.6834 18.0168 21.6834 18.6499 21.2929 19.0404L21.013 19.3204C18.9016 21.4317 15.559 21.6693 13.1703 19.8777L10.6286 17.9714C8.88504 16.6638 7.33622 15.115 6.02857 13.3714L4.12226 10.8297C2.33072 8.44096 2.56827 5.0984 4.67962 2.98705Z" stroke="#1C1C1C" stroke-width="2"/>
</svg>
