<svg width="24" height="24" viewBox="0 0 24 24" fill="none" xmlns="http://www.w3.org/2000/svg">
<path d="M13.333 4.13379L13.333 3.13379H13.333V4.13379ZM16.7334 10.9326L17.7334 10.9326V10.9326H16.7334ZM13.333 20L13.333 21L13.333 21L13.333 20ZM21.2666 12.0664L22.2666 12.0664V12.0664H21.2666ZM10.5198 19.3365L9.53331 19.5L10.5198 19.3365ZM13.2656 4.37457L12.702 5.20063L13.2656 4.37457ZM13.2656 4.37457L13.8291 3.5485C16.1839 5.15504 17.7333 7.86277 17.7334 10.9326L16.7334 10.9326L15.7334 10.9326C15.7334 8.55169 14.534 6.45051 12.702 5.20063L13.2656 4.37457ZM16.7334 10.9326H17.7334C17.7334 14.4353 15.7173 17.4646 12.7869 18.9278L12.3402 18.0332L11.8934 17.1385C14.1721 16.0007 15.7334 13.6484 15.7334 10.9326H16.7334ZM12.2613 19.9281L12.3954 18.9371C12.7016 18.9785 13.0145 19 13.333 19L13.333 20L13.333 21C12.9245 21 12.522 20.9724 12.1273 20.919L12.2613 19.9281ZM13.333 20V19C17.1622 19 20.2666 15.8956 20.2666 12.0664H21.2666H22.2666C22.2666 17.0002 18.2668 21 13.333 21V20ZM21.2666 12.0664L20.2666 12.0664C20.2665 8.23749 17.1622 5.13379 13.333 5.13379V4.13379V3.13379C18.2665 3.13379 22.2664 7.13265 22.2666 12.0664L21.2666 12.0664ZM12.3402 18.0332L12.7869 18.9278C12.1334 19.2541 11.731 19.4571 11.4883 19.6174C11.3666 19.6978 11.3629 19.7186 11.3935 19.679C11.4437 19.6141 11.5486 19.4277 11.5064 19.1729L10.5198 19.3365L9.53331 19.5C9.46086 19.0631 9.62149 18.701 9.81143 18.4554C9.98181 18.2351 10.2019 18.0702 10.3861 17.9486C10.7551 17.7048 11.2931 17.4383 11.8934 17.1385L12.3402 18.0332ZM12.2613 19.9281L12.1273 20.919C11.6025 20.8481 11.0912 20.7817 10.7145 20.6724C10.3792 20.5752 9.66717 20.3073 9.53331 19.5L10.5198 19.3365L11.5064 19.1729C11.4755 18.9866 11.3687 18.8452 11.2713 18.7699C11.2051 18.7188 11.1772 18.7242 11.2714 18.7515C11.3564 18.7762 11.486 18.8036 11.6845 18.8357C11.8802 18.8673 12.1113 18.8987 12.3954 18.9371L12.2613 19.9281ZM13.333 4.13379L13.333 5.13379C13.7739 5.13377 14.0851 4.81943 14.1752 4.49218C14.2624 4.17517 14.165 3.77767 13.8291 3.5485L13.2656 4.37457L12.702 5.20063C12.2596 4.8988 12.1315 4.38092 12.2468 3.96169C12.365 3.53221 12.7632 3.13381 13.333 3.13379L13.333 4.13379Z" fill="white"/>
<path d="M5.5316 9.21605C5.629 9.38701 5.69434 9.58301 5.825 9.975L5.825 9.975C5.98729 10.4619 6.06843 10.7053 6.17006 10.7945C6.35879 10.9603 6.64121 10.9603 6.82994 10.7945C6.93157 10.7053 7.01271 10.4619 7.175 9.975L7.175 9.975C7.30566 9.58301 7.371 9.38701 7.4684 9.21605C7.64604 8.90428 7.90428 8.64604 8.21605 8.4684C8.38701 8.371 8.58301 8.30566 8.975 8.175L8.975 8.175C9.46186 8.01271 9.70529 7.93157 9.79454 7.82994C9.9603 7.64121 9.9603 7.35879 9.79454 7.17006C9.70529 7.06843 9.46186 6.98729 8.975 6.825L8.975 6.825C8.58301 6.69434 8.38701 6.629 8.21605 6.5316C7.90428 6.35396 7.64604 6.09572 7.4684 5.78395C7.371 5.61299 7.30566 5.41699 7.175 5.025L7.175 5.025C7.01271 4.53814 6.93157 4.29471 6.82994 4.20546C6.64121 4.0397 6.35879 4.0397 6.17006 4.20546C6.06843 4.29471 5.98729 4.53814 5.825 5.025L5.825 5.025C5.69434 5.41699 5.629 5.61299 5.5316 5.78395C5.35396 6.09572 5.09572 6.35396 4.78395 6.5316C4.61299 6.629 4.41699 6.69434 4.025 6.825L4.025 6.825C3.53814 6.98729 3.29471 7.06843 3.20546 7.17006C3.0397 7.35879 3.0397 7.64121 3.20546 7.82994C3.29471 7.93157 3.53814 8.01271 4.025 8.175L4.025 8.175C4.41699 8.30566 4.61299 8.371 4.78395 8.4684C5.09572 8.64604 5.35396 8.90428 5.5316 9.21605Z" stroke="white" stroke-width="2"/>
</svg>
